# MagicaVoxel @ Ephtracy

# group
o 

# material
mtllib banana.mtl
usemtl palette

# normals
vn -1 0 0
vn 1 0 0
vn 0 0 1
vn 0 0 -1
vn 0 -1 0
vn 0 1 0

# texcoords
vt 0.306641 0.5
vt 0.310547 0.5

# verts
v -0.9 0.9 0.2
v -0.9 0.9 -0.2
v -0.9 1.3 0.2
v -0.9 1.3 0.1
v -0.9 1.3 -0.1
v -0.9 1.3 -0.2
v -0.9 1.4 0.1
v -0.9 1.4 -0.1
v -0.9 1.5 0.1
v -0.9 1.5 -0.1
v -0.8 0.8 0.2
v -0.8 0.8 -0.2
v -0.8 0.9 0.2
v -0.8 0.9 -0.2
v -0.8 1.3 0.2
v -0.8 1.3 0.1
v -0.8 1.3 -0.1
v -0.8 1.3 -0.2
v -0.8 1.4 0.2
v -0.8 1.4 0.1
v -0.8 1.4 -0.1
v -0.8 1.4 -0.2
v -0.8 1.5 0.2
v -0.8 1.5 0.1
v -0.8 1.5 -0.1
v -0.8 1.5 -0.2
v -0.8 1.6 0.1
v -0.8 1.6 -0.1
v -0.7 0.7 0.2
v -0.7 0.7 -0.2
v -0.7 0.8 0.2
v -0.7 0.8 -0.2
v -0.6 0.6 0.2
v -0.6 0.6 -0.2
v -0.6 0.7 0.2
v -0.6 0.7 -0.2
v -0.5 0.5 0.2
v -0.5 0.5 -0.2
v -0.5 0.6 0.2
v -0.5 0.6 -0.2
v 0.4 0.8 0.2
v 0.4 0.8 -0.2
v 0.4 0.9 0.2
v 0.4 0.9 -0.2
v 0.5 0.9 0.1
v 0.5 0.9 -0.1
v 0.5 1 0.1
v 0.5 1 -0.1
v 0.6 0.9 0.2
v 0.6 0.9 0.1
v 0.6 0.9 -0.1
v 0.6 0.9 -0.2
v 0.6 1 0.1
v 0.6 1 -0.1
v 0.6 1.1 0.2
v 0.6 1.1 -0.2
v 0.8 1.1 0.1
v 0.8 1.1 -0.1
v 0.8 1.3 0.1
v 0.8 1.3 -0.1
v 0.9 1.3 0.1
v 0.9 1.3 -0.1
v 0.9 1.4 0.1
v 0.9 1.4 -0.1
v -0.7 1.3 0.2
v -0.7 1.3 0.1
v -0.7 1.3 -0.1
v -0.7 1.3 -0.2
v -0.7 1.4 0.2
v -0.7 1.4 0.1
v -0.7 1.4 -0.1
v -0.7 1.4 -0.2
v -0.7 1.5 0.2
v -0.7 1.5 0.1
v -0.7 1.5 -0.1
v -0.7 1.5 -0.2
v -0.7 1.6 0.1
v -0.7 1.6 -0.1
v -0.6 1 0.2
v -0.6 1 0.1
v -0.6 1 -0.1
v -0.6 1 -0.2
v -0.6 1.1 0.1
v -0.6 1.1 -0.1
v -0.6 1.3 0.2
v -0.6 1.3 0.1
v -0.6 1.3 -0.1
v -0.6 1.3 -0.2
v -0.6 1.4 0.1
v -0.6 1.4 -0.1
v -0.6 1.5 0.1
v -0.6 1.5 -0.1
v -0.5 1 0.1
v -0.5 1 -0.1
v -0.5 1.1 0.1
v -0.5 1.1 -0.1
v -0.4 0.9 0.2
v -0.4 0.9 -0.2
v -0.4 1 0.2
v -0.4 1 -0.2
v -0.3 0.8 0.2
v -0.3 0.8 -0.2
v -0.3 0.9 0.2
v -0.3 0.9 -0.2
v 0.4 0.5 0.2
v 0.4 0.5 -0.2
v 0.4 0.6 0.2
v 0.4 0.6 -0.2
v 0.6 0.6 0.2
v 0.6 0.6 0.1
v 0.6 0.6 -0.1
v 0.6 0.6 -0.2
v 0.6 0.7 0.2
v 0.6 0.7 0.1
v 0.6 0.7 -0.1
v 0.6 0.7 -0.2
v 0.7 0.6 0.1
v 0.7 0.6 -0.1
v 0.7 0.7 0.2
v 0.7 0.7 0.1
v 0.7 0.7 -0.1
v 0.7 0.7 -0.2
v 0.7 0.8 0.2
v 0.7 0.8 0.1
v 0.7 0.8 -0.1
v 0.7 0.8 -0.2
v 0.8 0.7 0.1
v 0.8 0.7 -0.1
v 0.8 0.8 0.2
v 0.8 0.8 0.1
v 0.8 0.8 -0.1
v 0.8 0.9 0.2
v 0.8 0.9 0.1
v 0.9 0.8 0.1
v 0.9 0.8 -0.2
v 0.9 0.9 0.2
v 0.9 0.9 0.1
v 0.9 0.9 -0.1
v 0.9 1.1 0.2
v 0.9 1.1 0.1
v 0.9 1.1 -0.1
v 0.9 1.1 -0.2
v 1 0.9 0.1
v 1 0.9 -0.1
v 1 1.3 0.1
v 1 1.3 -0.1
v 1 1.4 0.1
v 1 1.4 -0.1
v -0.9 0.9 0.2
v -0.9 1.3 0.2
v -0.8 0.8 0.2
v -0.8 0.9 0.2
v -0.8 1.3 0.2
v -0.8 1.4 0.2
v -0.8 1.5 0.2
v -0.7 0.7 0.2
v -0.7 0.8 0.2
v -0.7 1.3 0.2
v -0.7 1.4 0.2
v -0.7 1.5 0.2
v -0.6 0.6 0.2
v -0.6 0.7 0.2
v -0.6 1 0.2
v -0.6 1.3 0.2
v -0.5 0.5 0.2
v -0.5 0.6 0.2
v -0.4 0.9 0.2
v -0.4 1 0.2
v -0.3 0.8 0.2
v -0.3 0.9 0.2
v 0.4 0.5 0.2
v 0.4 0.6 0.2
v 0.4 0.8 0.2
v 0.4 0.9 0.2
v 0.6 0.6 0.2
v 0.6 0.7 0.2
v 0.6 0.9 0.2
v 0.6 1.1 0.2
v 0.7 0.7 0.2
v 0.7 0.8 0.2
v 0.8 0.8 0.2
v 0.8 0.9 0.2
v 0.9 0.9 0.2
v 0.9 1.1 0.2
v -0.9 1.3 0.1
v -0.9 1.4 0.1
v -0.9 1.5 0.1
v -0.8 1.3 0.1
v -0.8 1.4 0.1
v -0.8 1.5 0.1
v -0.8 1.6 0.1
v -0.7 1.3 0.1
v -0.7 1.4 0.1
v -0.7 1.5 0.1
v -0.7 1.6 0.1
v -0.6 1 0.1
v -0.6 1.1 0.1
v -0.6 1.3 0.1
v -0.6 1.4 0.1
v -0.6 1.5 0.1
v -0.5 1 0.1
v -0.5 1.1 0.1
v 0.5 0.9 0.1
v 0.5 1 0.1
v 0.6 0.6 0.1
v 0.6 0.7 0.1
v 0.6 0.9 0.1
v 0.6 1 0.1
v 0.7 0.6 0.1
v 0.7 0.7 0.1
v 0.7 0.8 0.1
v 0.8 0.7 0.1
v 0.8 0.8 0.1
v 0.8 0.9 0.1
v 0.8 1.1 0.1
v 0.8 1.3 0.1
v 0.9 0.8 0.1
v 0.9 0.9 0.1
v 0.9 1.1 0.1
v 0.9 1.3 0.1
v 0.9 1.4 0.1
v 1 0.9 0.1
v 1 1.3 0.1
v 1 1.4 0.1
v -0.9 1.3 -0.1
v -0.9 1.4 -0.1
v -0.9 1.5 -0.1
v -0.8 1.3 -0.1
v -0.8 1.4 -0.1
v -0.8 1.5 -0.1
v -0.8 1.6 -0.1
v -0.7 1.3 -0.1
v -0.7 1.4 -0.1
v -0.7 1.5 -0.1
v -0.7 1.6 -0.1
v -0.6 1 -0.1
v -0.6 1.1 -0.1
v -0.6 1.3 -0.1
v -0.6 1.4 -0.1
v -0.6 1.5 -0.1
v -0.5 1 -0.1
v -0.5 1.1 -0.1
v 0.5 0.9 -0.1
v 0.5 1 -0.1
v 0.6 0.6 -0.1
v 0.6 0.7 -0.1
v 0.6 0.9 -0.1
v 0.6 1 -0.1
v 0.7 0.6 -0.1
v 0.7 0.7 -0.1
v 0.7 0.8 -0.1
v 0.8 0.7 -0.1
v 0.8 0.8 -0.1
v 0.8 1.1 -0.1
v 0.8 1.3 -0.1
v 0.9 0.9 -0.1
v 0.9 1.1 -0.1
v 0.9 1.3 -0.1
v 0.9 1.4 -0.1
v 1 0.9 -0.1
v 1 1.3 -0.1
v 1 1.4 -0.1
v -0.9 0.9 -0.2
v -0.9 1.3 -0.2
v -0.8 0.8 -0.2
v -0.8 0.9 -0.2
v -0.8 1.3 -0.2
v -0.8 1.4 -0.2
v -0.8 1.5 -0.2
v -0.7 0.7 -0.2
v -0.7 0.8 -0.2
v -0.7 1.3 -0.2
v -0.7 1.4 -0.2
v -0.7 1.5 -0.2
v -0.6 0.6 -0.2
v -0.6 0.7 -0.2
v -0.6 1 -0.2
v -0.6 1.3 -0.2
v -0.5 0.5 -0.2
v -0.5 0.6 -0.2
v -0.4 0.9 -0.2
v -0.4 1 -0.2
v -0.3 0.8 -0.2
v -0.3 0.9 -0.2
v 0.4 0.5 -0.2
v 0.4 0.6 -0.2
v 0.4 0.8 -0.2
v 0.4 0.9 -0.2
v 0.6 0.6 -0.2
v 0.6 0.7 -0.2
v 0.6 0.9 -0.2
v 0.6 1.1 -0.2
v 0.7 0.7 -0.2
v 0.7 0.8 -0.2
v 0.9 0.8 -0.2
v 0.9 1.1 -0.2
v -0.5 0.5 0.2
v 0.4 0.5 0.2
v -0.5 0.5 -0.2
v 0.4 0.5 -0.2
v -0.6 0.6 0.2
v -0.5 0.6 0.2
v 0.4 0.6 0.2
v 0.6 0.6 0.2
v 0.6 0.6 0.1
v 0.7 0.6 0.1
v 0.6 0.6 -0.1
v 0.7 0.6 -0.1
v -0.6 0.6 -0.2
v -0.5 0.6 -0.2
v 0.4 0.6 -0.2
v 0.6 0.6 -0.2
v -0.7 0.7 0.2
v -0.6 0.7 0.2
v 0.6 0.7 0.2
v 0.7 0.7 0.2
v 0.6 0.7 0.1
v 0.7 0.7 0.1
v 0.8 0.7 0.1
v 0.6 0.7 -0.1
v 0.7 0.7 -0.1
v 0.8 0.7 -0.1
v -0.7 0.7 -0.2
v -0.6 0.7 -0.2
v 0.6 0.7 -0.2
v 0.7 0.7 -0.2
v -0.8 0.8 0.2
v -0.7 0.8 0.2
v 0.7 0.8 0.2
v 0.8 0.8 0.2
v 0.7 0.8 0.1
v 0.8 0.8 0.1
v 0.9 0.8 0.1
v 0.7 0.8 -0.1
v 0.8 0.8 -0.1
v -0.8 0.8 -0.2
v -0.7 0.8 -0.2
v 0.7 0.8 -0.2
v 0.9 0.8 -0.2
v -0.9 0.9 0.2
v -0.8 0.9 0.2
v 0.8 0.9 0.2
v 0.9 0.9 0.2
v 0.8 0.9 0.1
v 0.9 0.9 0.1
v 1 0.9 0.1
v 0.9 0.9 -0.1
v 1 0.9 -0.1
v -0.9 0.9 -0.2
v -0.8 0.9 -0.2
v -0.3 0.8 0.2
v 0.4 0.8 0.2
v -0.3 0.8 -0.2
v 0.4 0.8 -0.2
v -0.4 0.9 0.2
v -0.3 0.9 0.2
v 0.4 0.9 0.2
v 0.6 0.9 0.2
v 0.5 0.9 0.1
v 0.6 0.9 0.1
v 0.5 0.9 -0.1
v 0.6 0.9 -0.1
v -0.4 0.9 -0.2
v -0.3 0.9 -0.2
v 0.4 0.9 -0.2
v 0.6 0.9 -0.2
v -0.6 1 0.2
v -0.4 1 0.2
v -0.6 1 0.1
v -0.5 1 0.1
v 0.5 1 0.1
v 0.6 1 0.1
v -0.6 1 -0.1
v -0.5 1 -0.1
v 0.5 1 -0.1
v 0.6 1 -0.1
v -0.6 1 -0.2
v -0.4 1 -0.2
v 0.6 1.1 0.2
v 0.9 1.1 0.2
v -0.6 1.1 0.1
v -0.5 1.1 0.1
v 0.8 1.1 0.1
v 0.9 1.1 0.1
v -0.6 1.1 -0.1
v -0.5 1.1 -0.1
v 0.8 1.1 -0.1
v 0.9 1.1 -0.1
v 0.6 1.1 -0.2
v 0.9 1.1 -0.2
v -0.9 1.3 0.2
v -0.8 1.3 0.2
v -0.7 1.3 0.2
v -0.6 1.3 0.2
v -0.9 1.3 0.1
v -0.8 1.3 0.1
v -0.7 1.3 0.1
v -0.6 1.3 0.1
v 0.8 1.3 0.1
v 0.9 1.3 0.1
v -0.9 1.3 -0.1
v -0.8 1.3 -0.1
v -0.7 1.3 -0.1
v -0.6 1.3 -0.1
v 0.8 1.3 -0.1
v 0.9 1.3 -0.1
v -0.9 1.3 -0.2
v -0.8 1.3 -0.2
v -0.7 1.3 -0.2
v -0.6 1.3 -0.2
v 0.9 1.4 0.1
v 1 1.4 0.1
v 0.9 1.4 -0.1
v 1 1.4 -0.1
v -0.8 1.5 0.2
v -0.7 1.5 0.2
v -0.9 1.5 0.1
v -0.8 1.5 0.1
v -0.7 1.5 0.1
v -0.6 1.5 0.1
v -0.9 1.5 -0.1
v -0.8 1.5 -0.1
v -0.7 1.5 -0.1
v -0.6 1.5 -0.1
v -0.8 1.5 -0.2
v -0.7 1.5 -0.2
v -0.8 1.6 0.1
v -0.7 1.6 0.1
v -0.8 1.6 -0.1
v -0.7 1.6 -0.1

# faces
f 3/1/1 2/1/1 1/1/1
f 4/1/1 2/1/1 3/1/1
f 5/1/1 2/1/1 4/1/1
f 6/1/1 2/1/1 5/1/1
f 7/1/1 5/1/1 4/1/1
f 8/1/1 5/1/1 7/1/1
f 9/2/1 8/2/1 7/2/1
f 10/2/1 8/2/1 9/2/1
f 13/1/1 12/1/1 11/1/1
f 14/1/1 12/1/1 13/1/1
f 19/1/1 16/1/1 15/1/1
f 20/1/1 16/1/1 19/1/1
f 21/1/1 18/1/1 17/1/1
f 22/1/1 18/1/1 21/1/1
f 23/2/1 20/2/1 19/2/1
f 24/2/1 20/2/1 23/2/1
f 25/2/1 22/2/1 21/2/1
f 26/2/1 22/2/1 25/2/1
f 27/2/1 25/2/1 24/2/1
f 28/2/1 25/2/1 27/2/1
f 31/1/1 30/1/1 29/1/1
f 32/1/1 30/1/1 31/1/1
f 35/1/1 34/1/1 33/1/1
f 36/1/1 34/1/1 35/1/1
f 39/1/1 38/1/1 37/1/1
f 40/1/1 38/1/1 39/1/1
f 43/1/1 42/1/1 41/1/1
f 44/1/1 42/1/1 43/1/1
f 47/1/1 46/1/1 45/1/1
f 48/1/1 46/1/1 47/1/1
f 53/1/1 50/1/1 49/1/1
f 54/1/1 52/1/1 51/1/1
f 55/1/1 53/1/1 49/1/1
f 55/1/1 54/1/1 53/1/1
f 56/1/1 52/1/1 54/1/1
f 56/1/1 54/1/1 55/1/1
f 59/1/1 58/1/1 57/1/1
f 60/1/1 58/1/1 59/1/1
f 63/2/1 62/2/1 61/2/1
f 64/2/1 62/2/1 63/2/1
f 65/1/2 66/1/2 69/1/2
f 69/1/2 66/1/2 70/1/2
f 67/1/2 68/1/2 71/1/2
f 71/1/2 68/1/2 72/1/2
f 69/2/2 70/2/2 73/2/2
f 73/2/2 70/2/2 74/2/2
f 71/2/2 72/2/2 75/2/2
f 75/2/2 72/2/2 76/2/2
f 74/2/2 75/2/2 77/2/2
f 77/2/2 75/2/2 78/2/2
f 79/1/2 80/1/2 83/1/2
f 81/1/2 82/1/2 84/1/2
f 79/1/2 83/1/2 85/1/2
f 83/1/2 84/1/2 85/1/2
f 85/1/2 84/1/2 86/1/2
f 84/1/2 82/1/2 87/1/2
f 86/1/2 84/1/2 87/1/2
f 87/1/2 82/1/2 88/1/2
f 86/1/2 87/1/2 89/1/2
f 89/1/2 87/1/2 90/1/2
f 89/2/2 90/2/2 91/2/2
f 91/2/2 90/2/2 92/2/2
f 93/1/2 94/1/2 95/1/2
f 95/1/2 94/1/2 96/1/2
f 97/1/2 98/1/2 99/1/2
f 99/1/2 98/1/2 100/1/2
f 101/1/2 102/1/2 103/1/2
f 103/1/2 102/1/2 104/1/2
f 105/1/2 106/1/2 107/1/2
f 107/1/2 106/1/2 108/1/2
f 109/1/2 110/1/2 113/1/2
f 113/1/2 110/1/2 114/1/2
f 111/1/2 112/1/2 115/1/2
f 115/1/2 112/1/2 116/1/2
f 117/1/2 118/1/2 120/1/2
f 120/1/2 118/1/2 121/1/2
f 119/1/2 120/1/2 123/1/2
f 123/1/2 120/1/2 124/1/2
f 121/1/2 122/1/2 125/1/2
f 125/1/2 122/1/2 126/1/2
f 127/1/2 128/1/2 130/1/2
f 130/1/2 128/1/2 131/1/2
f 129/1/2 130/1/2 132/1/2
f 132/1/2 130/1/2 133/1/2
f 134/1/2 135/1/2 137/1/2
f 137/1/2 135/1/2 138/1/2
f 136/1/2 137/1/2 139/1/2
f 139/1/2 137/1/2 140/1/2
f 138/1/2 135/1/2 141/1/2
f 141/1/2 135/1/2 142/1/2
f 143/1/2 144/1/2 145/1/2
f 145/1/2 144/1/2 146/1/2
f 145/2/2 146/2/2 147/2/2
f 147/2/2 146/2/2 148/2/2
f 152/1/3 150/1/3 149/1/3
f 153/1/3 150/1/3 152/1/3
f 157/1/3 152/1/3 151/1/3
f 157/1/3 153/1/3 152/1/3
f 157/1/3 154/1/3 153/1/3
f 158/1/3 154/1/3 157/1/3
f 159/2/3 155/2/3 154/2/3
f 159/1/3 154/1/3 158/1/3
f 160/2/3 155/2/3 159/2/3
f 162/1/3 158/1/3 157/1/3
f 162/1/3 157/1/3 156/1/3
f 163/1/3 158/1/3 162/1/3
f 164/1/3 158/1/3 163/1/3
f 166/1/3 162/1/3 161/1/3
f 166/1/3 163/1/3 162/1/3
f 167/1/3 163/1/3 166/1/3
f 167/1/3 166/1/3 165/1/3
f 168/1/3 163/1/3 167/1/3
f 169/1/3 167/1/3 165/1/3
f 170/1/3 167/1/3 169/1/3
f 171/1/3 169/1/3 165/1/3
f 172/1/3 169/1/3 171/1/3
f 173/1/3 169/1/3 172/1/3
f 175/1/3 174/1/3 173/1/3
f 175/1/3 173/1/3 172/1/3
f 176/1/3 174/1/3 175/1/3
f 177/1/3 174/1/3 176/1/3
f 179/1/3 177/1/3 176/1/3
f 179/1/3 178/1/3 177/1/3
f 180/1/3 178/1/3 179/1/3
f 181/1/3 178/1/3 180/1/3
f 182/1/3 178/1/3 181/1/3
f 183/1/3 178/1/3 182/1/3
f 184/1/3 178/1/3 183/1/3
f 188/1/3 186/1/3 185/1/3
f 189/2/3 187/2/3 186/2/3
f 189/1/3 186/1/3 188/1/3
f 190/2/3 187/2/3 189/2/3
f 194/2/3 191/2/3 190/2/3
f 195/2/3 191/2/3 194/2/3
f 198/1/3 193/1/3 192/1/3
f 199/2/3 194/2/3 193/2/3
f 199/1/3 193/1/3 198/1/3
f 200/2/3 194/2/3 199/2/3
f 201/1/3 197/1/3 196/1/3
f 202/1/3 197/1/3 201/1/3
f 207/1/3 204/1/3 203/1/3
f 208/1/3 204/1/3 207/1/3
f 209/1/3 206/1/3 205/1/3
f 210/1/3 206/1/3 209/1/3
f 212/1/3 211/1/3 210/1/3
f 213/1/3 211/1/3 212/1/3
f 217/1/3 214/1/3 213/1/3
f 218/1/3 214/1/3 217/1/3
f 219/1/3 216/1/3 215/1/3
f 220/1/3 216/1/3 219/1/3
f 222/1/3 219/1/3 218/1/3
f 222/1/3 220/1/3 219/1/3
f 223/2/3 221/2/3 220/2/3
f 223/1/3 220/1/3 222/1/3
f 224/2/3 221/2/3 223/2/3
f 225/1/4 226/1/4 228/1/4
f 226/2/4 227/2/4 229/2/4
f 228/1/4 226/1/4 229/1/4
f 229/2/4 227/2/4 230/2/4
f 230/2/4 231/2/4 234/2/4
f 234/2/4 231/2/4 235/2/4
f 232/1/4 233/1/4 238/1/4
f 233/2/4 234/2/4 239/2/4
f 238/1/4 233/1/4 239/1/4
f 239/2/4 234/2/4 240/2/4
f 236/1/4 237/1/4 241/1/4
f 241/1/4 237/1/4 242/1/4
f 243/1/4 244/1/4 247/1/4
f 247/1/4 244/1/4 248/1/4
f 245/1/4 246/1/4 249/1/4
f 249/1/4 246/1/4 250/1/4
f 250/1/4 251/1/4 252/1/4
f 252/1/4 251/1/4 253/1/4
f 254/1/4 255/1/4 257/1/4
f 257/1/4 255/1/4 258/1/4
f 256/1/4 257/1/4 260/1/4
f 257/1/4 258/1/4 260/1/4
f 258/2/4 259/2/4 261/2/4
f 260/1/4 258/1/4 261/1/4
f 261/2/4 259/2/4 262/2/4
f 263/1/4 264/1/4 266/1/4
f 266/1/4 264/1/4 267/1/4
f 265/1/4 266/1/4 271/1/4
f 266/1/4 267/1/4 271/1/4
f 267/1/4 268/1/4 271/1/4
f 271/1/4 268/1/4 272/1/4
f 268/2/4 269/2/4 273/2/4
f 272/1/4 268/1/4 273/1/4
f 273/2/4 269/2/4 274/2/4
f 271/1/4 272/1/4 276/1/4
f 270/1/4 271/1/4 276/1/4
f 276/1/4 272/1/4 277/1/4
f 277/1/4 272/1/4 278/1/4
f 275/1/4 276/1/4 280/1/4
f 276/1/4 277/1/4 280/1/4
f 280/1/4 277/1/4 281/1/4
f 279/1/4 280/1/4 281/1/4
f 281/1/4 277/1/4 282/1/4
f 279/1/4 281/1/4 283/1/4
f 283/1/4 281/1/4 284/1/4
f 279/1/4 283/1/4 285/1/4
f 285/1/4 283/1/4 286/1/4
f 286/1/4 283/1/4 287/1/4
f 287/1/4 288/1/4 289/1/4
f 286/1/4 287/1/4 289/1/4
f 289/1/4 288/1/4 290/1/4
f 290/1/4 288/1/4 291/1/4
f 290/1/4 291/1/4 293/1/4
f 291/1/4 292/1/4 293/1/4
f 293/1/4 292/1/4 294/1/4
f 294/1/4 292/1/4 295/1/4
f 295/1/4 292/1/4 296/1/4
f 299/1/5 298/1/5 297/1/5
f 300/1/5 298/1/5 299/1/5
f 305/1/5 304/1/5 303/1/5
f 307/1/5 305/1/5 303/1/5
f 307/1/5 306/1/5 305/1/5
f 308/1/5 306/1/5 307/1/5
f 309/1/5 302/1/5 301/1/5
f 310/1/5 302/1/5 309/1/5
f 311/1/5 307/1/5 303/1/5
f 312/1/5 307/1/5 311/1/5
f 317/1/5 316/1/5 315/1/5
f 318/1/5 316/1/5 317/1/5
f 321/1/5 319/1/5 318/1/5
f 322/1/5 319/1/5 321/1/5
f 323/1/5 314/1/5 313/1/5
f 324/1/5 314/1/5 323/1/5
f 325/1/5 321/1/5 320/1/5
f 326/1/5 321/1/5 325/1/5
f 331/1/5 330/1/5 329/1/5
f 332/1/5 330/1/5 331/1/5
f 335/1/5 333/1/5 332/1/5
f 336/1/5 328/1/5 327/1/5
f 337/1/5 328/1/5 336/1/5
f 338/1/5 335/1/5 334/1/5
f 339/1/5 333/1/5 335/1/5
f 339/1/5 335/1/5 338/1/5
f 344/1/5 343/1/5 342/1/5
f 345/1/5 343/1/5 344/1/5
f 347/1/5 346/1/5 345/1/5
f 348/1/5 346/1/5 347/1/5
f 349/1/5 341/1/5 340/1/5
f 350/1/5 341/1/5 349/1/5
f 351/1/6 352/1/6 353/1/6
f 353/1/6 352/1/6 354/1/6
f 357/1/6 358/1/6 359/1/6
f 359/1/6 358/1/6 360/1/6
f 357/1/6 359/1/6 361/1/6
f 355/1/6 356/1/6 363/1/6
f 363/1/6 356/1/6 364/1/6
f 361/1/6 362/1/6 365/1/6
f 357/1/6 361/1/6 365/1/6
f 365/1/6 362/1/6 366/1/6
f 367/1/6 368/1/6 369/1/6
f 369/1/6 368/1/6 370/1/6
f 370/1/6 368/1/6 374/1/6
f 371/1/6 372/1/6 375/1/6
f 375/1/6 372/1/6 376/1/6
f 373/1/6 374/1/6 377/1/6
f 374/1/6 368/1/6 378/1/6
f 377/1/6 374/1/6 378/1/6
f 379/1/6 380/1/6 383/1/6
f 383/1/6 380/1/6 384/1/6
f 381/1/6 382/1/6 385/1/6
f 385/1/6 382/1/6 386/1/6
f 379/1/6 383/1/6 387/1/6
f 387/1/6 388/1/6 389/1/6
f 379/1/6 387/1/6 389/1/6
f 389/1/6 388/1/6 390/1/6
f 391/1/6 392/1/6 395/1/6
f 395/1/6 392/1/6 396/1/6
f 393/1/6 394/1/6 397/1/6
f 397/1/6 394/1/6 398/1/6
f 399/1/6 400/1/6 405/1/6
f 405/1/6 400/1/6 406/1/6
f 401/1/6 402/1/6 407/1/6
f 407/1/6 402/1/6 408/1/6
f 403/1/6 404/1/6 409/1/6
f 409/1/6 404/1/6 410/1/6
f 411/2/6 412/2/6 413/2/6
f 413/2/6 412/2/6 414/2/6
f 415/2/6 416/2/6 418/2/6
f 418/2/6 416/2/6 419/2/6
f 417/2/6 418/2/6 421/2/6
f 421/2/6 418/2/6 422/2/6
f 419/2/6 420/2/6 423/2/6
f 423/2/6 420/2/6 424/2/6
f 422/2/6 423/2/6 425/2/6
f 425/2/6 423/2/6 426/2/6
f 427/2/6 428/2/6 429/2/6
f 429/2/6 428/2/6 430/2/6
