# MagicaVoxel @ Ephtracy

# group
o 

# material
mtllib watermelon.mtl
usemtl palette

# normals
vn -1 0 0
vn 1 0 0
vn 0 0 1
vn 0 0 -1
vn 0 -1 0
vn 0 1 0

# texcoords
vt 0.880859 0.5
vt 0.884766 0.5
vt 0.888672 0.5
vt 0.892578 0.5
vt 0.896484 0.5
vt 0.900391 0.5
vt 0.904297 0.5

# verts
v -0.9 0.4 0.1
v -0.9 0.4 -0.2
v -0.9 0.5 0.1
v -0.9 0.5 -0.2
v -0.9 0.6 0.1
v -0.9 0.6 -0.2
v -0.9 0.7 0.1
v -0.9 0.7 -0.2
v -0.9 0.8 0.1
v -0.9 0.8 -0.2
v -0.9 0.9 -1.49012e-008
v -0.9 0.9 -0.1
v -0.9 1 0.1
v -0.9 1 -1.49012e-008
v -0.9 1 -0.1
v -0.9 1 -0.2
v -0.9 1.1 0.1
v -0.9 1.1 -0.2
v -0.8 0.3 0.1
v -0.8 0.3 -0.2
v -0.8 0.4 0.1
v -0.8 0.4 -0.2
v -0.6 0.2 0.1
v -0.6 0.2 -0.2
v -0.6 0.3 0.1
v -0.6 0.3 -0.2
v -0.4 0.1 0.1
v -0.4 0.1 -0.2
v -0.4 0.2 0.1
v -0.4 0.2 -0.2
v -0.2 0 0.1
v -0.2 0 -0.2
v -0.2 0.1 0.1
v -0.2 0.1 -0.2
v 0.2 0 0.1
v 0.2 0 -0.2
v 0.2 0.1 0.1
v 0.2 0.1 -0.2
v 0.4 0.1 0.1
v 0.4 0.1 -0.2
v 0.4 0.2 0.1
v 0.4 0.2 -0.2
v 0.6 0.2 0.1
v 0.6 0.2 -0.2
v 0.6 0.3 0.1
v 0.6 0.3 -0.2
v 0.8 0.3 0.1
v 0.8 0.3 -0.2
v 0.8 0.4 0.1
v 0.8 0.4 -0.2
v 0.9 0.4 0.1
v 0.9 0.4 -0.2
v 0.9 0.5 0.1
v 0.9 0.5 -0.2
v 0.9 0.6 0.1
v 0.9 0.6 -0.2
v 0.9 0.7 0.1
v 0.9 0.7 -0.2
v 0.9 0.8 0.1
v 0.9 0.8 -0.2
v 0.9 0.9 0.1
v 0.9 0.9 -1.49012e-008
v 0.9 1 0.1
v 0.9 1 -1.49012e-008
v 0.9 1 -0.2
v 0.9 1.1 0.1
v 0.9 1.1 -0.2
v -0.9 0.4 0.1
v -0.9 0.5 0.1
v -0.9 0.6 0.1
v -0.9 0.7 0.1
v -0.9 0.8 0.1
v -0.9 1 0.1
v -0.9 1.1 0.1
v -0.8 0.3 0.1
v -0.8 0.4 0.1
v -0.8 0.5 0.1
v -0.8 0.6 0.1
v -0.8 0.7 0.1
v -0.8 0.8 0.1
v -0.8 0.9 0.1
v -0.8 1 0.1
v -0.7 0.8 0.1
v -0.7 0.9 0.1
v -0.7 1 0.1
v -0.6 0.2 0.1
v -0.6 0.3 0.1
v -0.6 0.4 0.1
v -0.6 0.5 0.1
v -0.6 0.6 0.1
v -0.6 0.7 0.1
v -0.6 0.8 0.1
v -0.5 0.7 0.1
v -0.5 0.8 0.1
v -0.4 0.1 0.1
v -0.4 0.2 0.1
v -0.4 0.3 0.1
v -0.4 0.4 0.1
v -0.4 0.5 0.1
v -0.4 0.6 0.1
v -0.3 0.5 0.1
v -0.3 0.6 0.1
v -0.3 0.7 0.1
v -0.3 0.8 0.1
v -0.3 0.9 0.1
v -0.2 0 0.1
v -0.2 0.1 0.1
v -0.2 0.2 0.1
v -0.2 0.3 0.1
v -0.2 0.4 0.1
v -0.2 0.5 0.1
v -0.2 0.8 0.1
v -0.2 0.9 0.1
v -0.1 0.5 0.1
v -0.1 0.6 0.1
v 0 0.5 0.1
v 0 0.6 0.1
v 0.1 0.4 0.1
v 0.1 0.5 0.1
v 0.1 0.6 0.1
v 0.1 0.7 0.1
v 0.1 0.8 0.1
v 0.2 0 0.1
v 0.2 0.1 0.1
v 0.2 0.2 0.1
v 0.2 0.3 0.1
v 0.2 0.4 0.1
v 0.2 0.5 0.1
v 0.2 0.7 0.1
v 0.2 0.8 0.1
v 0.3 0.6 0.1
v 0.3 0.7 0.1
v 0.4 0.1 0.1
v 0.4 0.2 0.1
v 0.4 0.3 0.1
v 0.4 0.4 0.1
v 0.4 0.5 0.1
v 0.4 0.6 0.1
v 0.4 0.7 0.1
v 0.4 0.8 0.1
v 0.4 0.9 0.1
v 0.5 0.6 0.1
v 0.5 0.7 0.1
v 0.5 0.8 0.1
v 0.5 0.9 0.1
v 0.6 0.2 0.1
v 0.6 0.3 0.1
v 0.6 0.4 0.1
v 0.6 0.5 0.1
v 0.6 0.6 0.1
v 0.6 0.7 0.1
v 0.7 0.7 0.1
v 0.7 0.8 0.1
v 0.7 0.9 0.1
v 0.8 0.3 0.1
v 0.8 0.4 0.1
v 0.8 0.5 0.1
v 0.8 0.6 0.1
v 0.8 0.7 0.1
v 0.8 0.8 0.1
v 0.8 0.9 0.1
v 0.8 1 0.1
v 0.9 0.4 0.1
v 0.9 0.5 0.1
v 0.9 0.6 0.1
v 0.9 0.7 0.1
v 0.9 0.8 0.1
v 0.9 0.9 0.1
v 0.9 1 0.1
v 0.9 1.1 0.1
v -0.9 0.4 -0.2
v -0.9 0.5 -0.2
v -0.9 0.6 -0.2
v -0.9 0.7 -0.2
v -0.9 0.8 -0.2
v -0.9 1 -0.2
v -0.9 1.1 -0.2
v -0.8 0.3 -0.2
v -0.8 0.4 -0.2
v -0.8 0.5 -0.2
v -0.8 0.6 -0.2
v -0.8 0.7 -0.2
v -0.8 0.8 -0.2
v -0.8 0.9 -0.2
v -0.8 1 -0.2
v -0.7 0.7 -0.2
v -0.7 0.8 -0.2
v -0.7 0.9 -0.2
v -0.7 1 -0.2
v -0.6 0.2 -0.2
v -0.6 0.3 -0.2
v -0.6 0.4 -0.2
v -0.6 0.5 -0.2
v -0.6 0.6 -0.2
v -0.6 0.7 -0.2
v -0.6 0.8 -0.2
v -0.5 0.7 -0.2
v -0.5 0.8 -0.2
v -0.5 0.9 -0.2
v -0.5 1 -0.2
v -0.4 0.1 -0.2
v -0.4 0.2 -0.2
v -0.4 0.3 -0.2
v -0.4 0.4 -0.2
v -0.4 0.5 -0.2
v -0.4 0.6 -0.2
v -0.4 0.9 -0.2
v -0.4 1 -0.2
v -0.3 0.5 -0.2
v -0.3 0.6 -0.2
v -0.3 0.7 -0.2
v -0.2 0 -0.2
v -0.2 0.1 -0.2
v -0.2 0.2 -0.2
v -0.2 0.3 -0.2
v -0.2 0.4 -0.2
v -0.2 0.5 -0.2
v -0.2 0.6 -0.2
v -0.2 0.7 -0.2
v -0.2 0.8 -0.2
v -0.1 0.4 -0.2
v -0.1 0.5 -0.2
v -0.1 0.6 -0.2
v -0.1 0.7 -0.2
v -0.1 0.8 -0.2
v 0 0.4 -0.2
v 0 0.5 -0.2
v 0.1 0.5 -0.2
v 0.1 0.6 -0.2
v 0.2 0 -0.2
v 0.2 0.1 -0.2
v 0.2 0.2 -0.2
v 0.2 0.3 -0.2
v 0.2 0.4 -0.2
v 0.2 0.5 -0.2
v 0.2 0.6 -0.2
v 0.2 0.8 -0.2
v 0.2 0.9 -0.2
v 0.3 0.5 -0.2
v 0.3 0.6 -0.2
v 0.3 0.7 -0.2
v 0.3 0.8 -0.2
v 0.3 0.9 -0.2
v 0.4 0.1 -0.2
v 0.4 0.2 -0.2
v 0.4 0.3 -0.2
v 0.4 0.4 -0.2
v 0.4 0.5 -0.2
v 0.4 0.6 -0.2
v 0.5 0.7 -0.2
v 0.5 0.8 -0.2
v 0.6 0.2 -0.2
v 0.6 0.3 -0.2
v 0.6 0.4 -0.2
v 0.6 0.5 -0.2
v 0.6 0.6 -0.2
v 0.6 0.7 -0.2
v 0.6 0.8 -0.2
v 0.7 0.8 -0.2
v 0.7 0.9 -0.2
v 0.7 1 -0.2
v 0.8 0.3 -0.2
v 0.8 0.4 -0.2
v 0.8 0.5 -0.2
v 0.8 0.6 -0.2
v 0.8 0.7 -0.2
v 0.8 0.8 -0.2
v 0.8 0.9 -0.2
v 0.8 1 -0.2
v 0.9 0.4 -0.2
v 0.9 0.5 -0.2
v 0.9 0.6 -0.2
v 0.9 0.7 -0.2
v 0.9 0.8 -0.2
v 0.9 1 -0.2
v 0.9 1.1 -0.2
v -0.2 0 0.1
v 0.2 0 0.1
v -0.2 0 -0.2
v 0.2 0 -0.2
v -0.4 0.1 0.1
v -0.2 0.1 0.1
v 0.2 0.1 0.1
v 0.4 0.1 0.1
v -0.4 0.1 -0.2
v -0.2 0.1 -0.2
v 0.2 0.1 -0.2
v 0.4 0.1 -0.2
v -0.6 0.2 0.1
v -0.4 0.2 0.1
v 0.4 0.2 0.1
v 0.6 0.2 0.1
v -0.6 0.2 -0.2
v -0.4 0.2 -0.2
v 0.4 0.2 -0.2
v 0.6 0.2 -0.2
v -0.8 0.3 0.1
v -0.6 0.3 0.1
v 0.6 0.3 0.1
v 0.8 0.3 0.1
v -0.8 0.3 -0.2
v -0.6 0.3 -0.2
v 0.6 0.3 -0.2
v 0.8 0.3 -0.2
v -0.9 0.4 0.1
v -0.8 0.4 0.1
v 0.8 0.4 0.1
v 0.9 0.4 0.1
v -0.9 0.4 -0.2
v -0.8 0.4 -0.2
v 0.8 0.4 -0.2
v 0.9 0.4 -0.2
v -0.9 1.1 0.1
v 0.9 1.1 0.1
v -0.9 1.1 -0.2
v 0.9 1.1 -0.2

# faces
f 3/7/1 2/7/1 1/7/1
f 4/7/1 2/7/1 3/7/1
f 5/6/1 4/6/1 3/6/1
f 6/6/1 4/6/1 5/6/1
f 7/5/1 6/5/1 5/5/1
f 8/5/1 6/5/1 7/5/1
f 9/4/1 8/4/1 7/4/1
f 10/4/1 8/4/1 9/4/1
f 11/3/1 10/3/1 9/3/1
f 12/3/1 10/3/1 11/3/1
f 13/3/1 11/3/1 9/3/1
f 14/1/1 12/1/1 11/1/1
f 14/3/1 11/3/1 13/3/1
f 15/3/1 10/3/1 12/3/1
f 15/1/1 12/1/1 14/1/1
f 16/3/1 10/3/1 15/3/1
f 17/2/1 14/2/1 13/2/1
f 17/2/1 15/2/1 14/2/1
f 17/2/1 16/2/1 15/2/1
f 18/2/1 16/2/1 17/2/1
f 21/7/1 20/7/1 19/7/1
f 22/7/1 20/7/1 21/7/1
f 25/7/1 24/7/1 23/7/1
f 26/7/1 24/7/1 25/7/1
f 29/7/1 28/7/1 27/7/1
f 30/7/1 28/7/1 29/7/1
f 33/7/1 32/7/1 31/7/1
f 34/7/1 32/7/1 33/7/1
f 35/7/2 36/7/2 37/7/2
f 37/7/2 36/7/2 38/7/2
f 39/7/2 40/7/2 41/7/2
f 41/7/2 40/7/2 42/7/2
f 43/7/2 44/7/2 45/7/2
f 45/7/2 44/7/2 46/7/2
f 47/7/2 48/7/2 49/7/2
f 49/7/2 48/7/2 50/7/2
f 51/7/2 52/7/2 53/7/2
f 53/7/2 52/7/2 54/7/2
f 53/6/2 54/6/2 55/6/2
f 55/6/2 54/6/2 56/6/2
f 55/5/2 56/5/2 57/5/2
f 57/5/2 56/5/2 58/5/2
f 57/4/2 58/4/2 59/4/2
f 59/4/2 58/4/2 60/4/2
f 59/3/2 60/3/2 61/3/2
f 61/3/2 60/3/2 62/3/2
f 61/1/2 62/1/2 63/1/2
f 62/3/2 60/3/2 64/3/2
f 63/1/2 62/1/2 64/1/2
f 64/3/2 60/3/2 65/3/2
f 63/2/2 64/2/2 66/2/2
f 64/2/2 65/2/2 66/2/2
f 66/2/2 65/2/2 67/2/2
f 76/7/3 69/7/3 68/7/3
f 77/6/3 70/6/3 69/6/3
f 77/7/3 69/7/3 76/7/3
f 78/5/3 71/5/3 70/5/3
f 78/6/3 70/6/3 77/6/3
f 79/4/3 72/4/3 71/4/3
f 79/5/3 71/5/3 78/5/3
f 80/3/3 73/3/3 72/3/3
f 80/4/3 72/4/3 79/4/3
f 81/3/3 73/3/3 80/3/3
f 82/2/3 74/2/3 73/2/3
f 82/3/3 73/3/3 81/3/3
f 83/3/3 81/3/3 80/3/3
f 83/3/3 80/3/3 79/3/3
f 84/1/3 82/1/3 81/1/3
f 84/3/3 81/3/3 83/3/3
f 85/2/3 74/2/3 82/2/3
f 85/1/3 82/1/3 84/1/3
f 87/7/3 76/7/3 75/7/3
f 88/6/3 77/6/3 76/6/3
f 88/7/3 76/7/3 87/7/3
f 89/5/3 78/5/3 77/5/3
f 89/6/3 77/6/3 88/6/3
f 90/4/3 79/4/3 78/4/3
f 90/5/3 78/5/3 89/5/3
f 91/3/3 83/3/3 79/3/3
f 91/4/3 79/4/3 90/4/3
f 92/2/3 84/2/3 83/2/3
f 92/3/3 83/3/3 91/3/3
f 92/2/3 85/2/3 84/2/3
f 93/3/3 91/3/3 90/3/3
f 93/1/3 92/1/3 91/1/3
f 94/2/3 85/2/3 92/2/3
f 94/1/3 92/1/3 93/1/3
f 96/7/3 87/7/3 86/7/3
f 97/6/3 88/6/3 87/6/3
f 97/7/3 87/7/3 96/7/3
f 98/5/3 89/5/3 88/5/3
f 98/6/3 88/6/3 97/6/3
f 99/4/3 90/4/3 89/4/3
f 99/5/3 89/5/3 98/5/3
f 100/3/3 93/3/3 90/3/3
f 100/4/3 90/4/3 99/4/3
f 101/4/3 99/4/3 98/4/3
f 101/1/3 100/1/3 99/1/3
f 102/3/3 93/3/3 100/3/3
f 102/1/3 100/1/3 101/1/3
f 103/2/3 94/2/3 93/2/3
f 103/3/3 93/3/3 102/3/3
f 104/2/3 85/2/3 94/2/3
f 104/2/3 94/2/3 103/2/3
f 105/2/3 85/2/3 104/2/3
f 107/7/3 96/7/3 95/7/3
f 108/6/3 97/6/3 96/6/3
f 108/7/3 96/7/3 107/7/3
f 109/5/3 98/5/3 97/5/3
f 109/6/3 97/6/3 108/6/3
f 110/4/3 101/4/3 98/4/3
f 110/5/3 98/5/3 109/5/3
f 111/3/3 102/3/3 101/3/3
f 111/4/3 101/4/3 110/4/3
f 112/2/3 103/2/3 102/2/3
f 112/2/3 104/2/3 103/2/3
f 112/1/3 105/1/3 104/1/3
f 113/2/3 85/2/3 105/2/3
f 113/1/3 105/1/3 112/1/3
f 114/3/3 102/3/3 111/3/3
f 114/3/3 111/3/3 110/3/3
f 115/2/3 112/2/3 102/2/3
f 115/3/3 102/3/3 114/3/3
f 115/2/3 113/2/3 112/2/3
f 116/3/3 114/3/3 110/3/3
f 116/1/3 115/1/3 114/1/3
f 117/2/3 113/2/3 115/2/3
f 117/1/3 115/1/3 116/1/3
f 118/3/3 116/3/3 110/3/3
f 118/4/3 110/4/3 109/4/3
f 119/2/3 117/2/3 116/2/3
f 119/3/3 116/3/3 118/3/3
f 120/2/3 113/2/3 117/2/3
f 120/2/3 117/2/3 119/2/3
f 121/2/3 113/2/3 120/2/3
f 122/2/3 113/2/3 121/2/3
f 123/7/3 107/7/3 106/7/3
f 124/6/3 108/6/3 107/6/3
f 124/7/3 107/7/3 123/7/3
f 125/5/3 109/5/3 108/5/3
f 125/6/3 108/6/3 124/6/3
f 126/4/3 118/4/3 109/4/3
f 126/5/3 109/5/3 125/5/3
f 127/1/3 119/1/3 118/1/3
f 127/4/3 118/4/3 126/4/3
f 128/3/3 120/3/3 119/3/3
f 128/1/3 119/1/3 127/1/3
f 129/2/3 121/2/3 120/2/3
f 129/1/3 122/1/3 121/1/3
f 130/2/3 113/2/3 122/2/3
f 130/1/3 122/1/3 129/1/3
f 131/2/3 129/2/3 120/2/3
f 131/2/3 130/2/3 129/2/3
f 131/3/3 120/3/3 128/3/3
f 132/2/3 130/2/3 131/2/3
f 133/7/3 125/7/3 124/7/3
f 134/6/3 126/6/3 125/6/3
f 134/7/3 125/7/3 133/7/3
f 135/5/3 127/5/3 126/5/3
f 135/6/3 126/6/3 134/6/3
f 136/4/3 128/4/3 127/4/3
f 136/5/3 127/5/3 135/5/3
f 137/3/3 131/3/3 128/3/3
f 137/4/3 128/4/3 136/4/3
f 137/3/3 132/3/3 131/3/3
f 138/3/3 132/3/3 137/3/3
f 139/2/3 130/2/3 132/2/3
f 139/3/3 132/3/3 138/3/3
f 140/2/3 113/2/3 130/2/3
f 140/2/3 130/2/3 139/2/3
f 141/2/3 85/2/3 113/2/3
f 141/2/3 113/2/3 140/2/3
f 142/1/3 139/1/3 138/1/3
f 142/4/3 138/4/3 137/4/3
f 143/2/3 140/2/3 139/2/3
f 143/1/3 139/1/3 142/1/3
f 144/1/3 141/1/3 140/1/3
f 144/2/3 140/2/3 143/2/3
f 145/2/3 85/2/3 141/2/3
f 145/1/3 141/1/3 144/1/3
f 146/7/3 135/7/3 134/7/3
f 147/6/3 136/6/3 135/6/3
f 147/7/3 135/7/3 146/7/3
f 148/5/3 137/5/3 136/5/3
f 148/6/3 136/6/3 147/6/3
f 149/4/3 142/4/3 137/4/3
f 149/5/3 137/5/3 148/5/3
f 150/3/3 144/3/3 143/3/3
f 150/4/3 142/4/3 149/4/3
f 150/3/3 143/3/3 142/3/3
f 151/3/3 144/3/3 150/3/3
f 152/3/3 144/3/3 151/3/3
f 152/4/3 151/4/3 150/4/3
f 153/2/3 145/2/3 144/2/3
f 153/3/3 144/3/3 152/3/3
f 154/2/3 85/2/3 145/2/3
f 154/2/3 145/2/3 153/2/3
f 155/7/3 148/7/3 147/7/3
f 156/6/3 149/6/3 148/6/3
f 156/7/3 148/7/3 155/7/3
f 157/5/3 150/5/3 149/5/3
f 157/6/3 149/6/3 156/6/3
f 158/4/3 152/4/3 150/4/3
f 158/5/3 150/5/3 157/5/3
f 159/1/3 153/1/3 152/1/3
f 159/4/3 152/4/3 158/4/3
f 160/3/3 154/3/3 153/3/3
f 160/1/3 153/1/3 159/1/3
f 161/2/3 85/2/3 154/2/3
f 161/3/3 154/3/3 160/3/3
f 162/2/3 74/2/3 85/2/3
f 162/2/3 85/2/3 161/2/3
f 163/7/3 157/7/3 156/7/3
f 164/6/3 158/6/3 157/6/3
f 164/7/3 157/7/3 163/7/3
f 165/5/3 159/5/3 158/5/3
f 165/6/3 158/6/3 164/6/3
f 166/4/3 160/4/3 159/4/3
f 166/5/3 159/5/3 165/5/3
f 167/3/3 161/3/3 160/3/3
f 167/4/3 160/4/3 166/4/3
f 168/1/3 162/1/3 161/1/3
f 168/3/3 161/3/3 167/3/3
f 169/2/3 74/2/3 162/2/3
f 169/1/3 162/1/3 168/1/3
f 170/2/3 74/2/3 169/2/3
f 171/7/4 172/7/4 179/7/4
f 172/6/4 173/6/4 180/6/4
f 179/7/4 172/7/4 180/7/4
f 173/5/4 174/5/4 181/5/4
f 180/6/4 173/6/4 181/6/4
f 174/4/4 175/4/4 182/4/4
f 181/5/4 174/5/4 182/5/4
f 175/3/4 176/3/4 183/3/4
f 182/4/4 175/4/4 183/4/4
f 183/3/4 176/3/4 184/3/4
f 176/2/4 177/2/4 185/2/4
f 184/3/4 176/3/4 185/3/4
f 183/3/4 184/3/4 186/3/4
f 181/4/4 182/4/4 186/4/4
f 182/3/4 183/3/4 186/3/4
f 186/3/4 184/3/4 187/3/4
f 184/1/4 185/1/4 188/1/4
f 187/3/4 184/3/4 188/3/4
f 185/2/4 177/2/4 189/2/4
f 188/1/4 185/1/4 189/1/4
f 178/7/4 179/7/4 191/7/4
f 179/6/4 180/6/4 192/6/4
f 191/7/4 179/7/4 192/7/4
f 180/5/4 181/5/4 193/5/4
f 192/6/4 180/6/4 193/6/4
f 181/4/4 186/4/4 194/4/4
f 193/5/4 181/5/4 194/5/4
f 186/1/4 187/1/4 195/1/4
f 194/4/4 186/4/4 195/4/4
f 187/2/4 188/2/4 196/2/4
f 195/1/4 187/1/4 196/1/4
f 188/2/4 189/2/4 196/2/4
f 194/3/4 195/3/4 197/3/4
f 195/3/4 196/3/4 197/3/4
f 196/2/4 189/2/4 198/2/4
f 197/3/4 196/3/4 198/3/4
f 198/2/4 189/2/4 199/2/4
f 189/2/4 177/2/4 200/2/4
f 199/2/4 189/2/4 200/2/4
f 190/7/4 191/7/4 202/7/4
f 191/6/4 192/6/4 203/6/4
f 202/7/4 191/7/4 203/7/4
f 192/5/4 193/5/4 204/5/4
f 203/6/4 192/6/4 204/6/4
f 193/4/4 194/4/4 205/4/4
f 204/5/4 193/5/4 205/5/4
f 194/3/4 197/3/4 206/3/4
f 205/4/4 194/4/4 206/4/4
f 198/2/4 199/2/4 207/2/4
f 197/2/4 198/2/4 207/2/4
f 199/1/4 200/1/4 207/1/4
f 200/2/4 177/2/4 208/2/4
f 207/1/4 200/1/4 208/1/4
f 204/4/4 205/4/4 209/4/4
f 205/3/4 206/3/4 209/3/4
f 206/3/4 197/3/4 210/3/4
f 209/3/4 206/3/4 210/3/4
f 197/2/4 207/2/4 211/2/4
f 210/3/4 197/3/4 211/3/4
f 207/2/4 208/2/4 211/2/4
f 201/7/4 202/7/4 213/7/4
f 202/6/4 203/6/4 214/6/4
f 213/7/4 202/7/4 214/7/4
f 203/5/4 204/5/4 215/5/4
f 214/6/4 203/6/4 215/6/4
f 204/4/4 209/4/4 216/4/4
f 215/5/4 204/5/4 216/5/4
f 209/1/4 210/1/4 217/1/4
f 216/4/4 209/4/4 217/4/4
f 210/2/4 211/2/4 218/2/4
f 217/1/4 210/1/4 218/1/4
f 211/2/4 208/2/4 219/2/4
f 218/2/4 211/2/4 219/2/4
f 219/2/4 208/2/4 220/2/4
f 215/4/4 216/4/4 221/4/4
f 217/3/4 218/3/4 221/3/4
f 216/3/4 217/3/4 221/3/4
f 221/3/4 218/3/4 222/3/4
f 218/2/4 219/2/4 223/2/4
f 222/3/4 218/3/4 223/3/4
f 219/1/4 220/1/4 224/1/4
f 223/2/4 219/2/4 224/2/4
f 220/2/4 208/2/4 225/2/4
f 224/1/4 220/1/4 225/1/4
f 221/1/4 222/1/4 226/1/4
f 215/4/4 221/4/4 226/4/4
f 223/2/4 224/2/4 227/2/4
f 226/1/4 222/1/4 227/1/4
f 222/2/4 223/2/4 227/2/4
f 224/2/4 225/2/4 227/2/4
f 226/3/4 227/3/4 228/3/4
f 227/2/4 225/2/4 228/2/4
f 228/2/4 225/2/4 229/2/4
f 212/7/4 213/7/4 230/7/4
f 213/6/4 214/6/4 231/6/4
f 230/7/4 213/7/4 231/7/4
f 214/5/4 215/5/4 232/5/4
f 231/6/4 214/6/4 232/6/4
f 215/4/4 226/4/4 233/4/4
f 232/5/4 215/5/4 233/5/4
f 226/3/4 228/3/4 234/3/4
f 233/4/4 226/4/4 234/4/4
f 228/3/4 229/3/4 234/3/4
f 234/3/4 229/3/4 235/3/4
f 229/2/4 225/2/4 236/2/4
f 235/3/4 229/3/4 236/3/4
f 225/2/4 208/2/4 237/2/4
f 236/2/4 225/2/4 237/2/4
f 237/2/4 208/2/4 238/2/4
f 234/4/4 235/4/4 239/4/4
f 235/1/4 236/1/4 239/1/4
f 236/2/4 237/2/4 240/2/4
f 239/1/4 236/1/4 240/1/4
f 240/2/4 237/2/4 241/2/4
f 237/1/4 238/1/4 242/1/4
f 241/2/4 237/2/4 242/2/4
f 238/2/4 208/2/4 243/2/4
f 242/1/4 238/1/4 243/1/4
f 231/7/4 232/7/4 244/7/4
f 232/6/4 233/6/4 245/6/4
f 244/7/4 232/7/4 245/7/4
f 233/5/4 234/5/4 246/5/4
f 245/6/4 233/6/4 246/6/4
f 234/4/4 239/4/4 247/4/4
f 246/5/4 234/5/4 247/5/4
f 240/3/4 241/3/4 248/3/4
f 247/4/4 239/4/4 248/4/4
f 239/3/4 240/3/4 248/3/4
f 248/3/4 241/3/4 249/3/4
f 241/2/4 242/2/4 250/2/4
f 249/3/4 241/3/4 250/3/4
f 242/2/4 243/2/4 250/2/4
f 250/2/4 243/2/4 251/2/4
f 245/7/4 246/7/4 252/7/4
f 246/6/4 247/6/4 253/6/4
f 252/7/4 246/7/4 253/7/4
f 247/5/4 248/5/4 254/5/4
f 253/6/4 247/6/4 254/6/4
f 248/4/4 249/4/4 255/4/4
f 254/5/4 248/5/4 255/5/4
f 249/3/4 250/3/4 256/3/4
f 255/4/4 249/4/4 256/4/4
f 250/1/4 251/1/4 257/1/4
f 256/3/4 250/3/4 257/3/4
f 251/2/4 243/2/4 258/2/4
f 257/1/4 251/1/4 258/1/4
f 258/2/4 243/2/4 259/2/4
f 257/3/4 258/3/4 259/3/4
f 243/2/4 208/2/4 260/2/4
f 259/2/4 243/2/4 260/2/4
f 208/2/4 177/2/4 261/2/4
f 260/2/4 208/2/4 261/2/4
f 253/7/4 254/7/4 262/7/4
f 254/6/4 255/6/4 263/6/4
f 262/7/4 254/7/4 263/7/4
f 255/5/4 256/5/4 264/5/4
f 263/6/4 255/6/4 264/6/4
f 256/4/4 257/4/4 265/4/4
f 264/5/4 256/5/4 265/5/4
f 259/3/4 260/3/4 266/3/4
f 265/4/4 257/4/4 266/4/4
f 257/3/4 259/3/4 266/3/4
f 266/3/4 260/3/4 267/3/4
f 260/1/4 261/1/4 268/1/4
f 267/3/4 260/3/4 268/3/4
f 261/2/4 177/2/4 269/2/4
f 268/1/4 261/1/4 269/1/4
f 263/7/4 264/7/4 270/7/4
f 264/6/4 265/6/4 271/6/4
f 270/7/4 264/7/4 271/7/4
f 265/5/4 266/5/4 272/5/4
f 271/6/4 265/6/4 272/6/4
f 266/4/4 267/4/4 273/4/4
f 272/5/4 266/5/4 273/5/4
f 267/3/4 268/3/4 274/3/4
f 273/4/4 267/4/4 274/4/4
f 268/3/4 269/3/4 274/3/4
f 269/2/4 177/2/4 275/2/4
f 274/3/4 269/3/4 275/3/4
f 275/2/4 177/2/4 276/2/4
f 279/7/5 278/7/5 277/7/5
f 280/7/5 278/7/5 279/7/5
f 285/7/5 282/7/5 281/7/5
f 286/7/5 282/7/5 285/7/5
f 287/7/5 284/7/5 283/7/5
f 288/7/5 284/7/5 287/7/5
f 293/7/5 290/7/5 289/7/5
f 294/7/5 290/7/5 293/7/5
f 295/7/5 292/7/5 291/7/5
f 296/7/5 292/7/5 295/7/5
f 301/7/5 298/7/5 297/7/5
f 302/7/5 298/7/5 301/7/5
f 303/7/5 300/7/5 299/7/5
f 304/7/5 300/7/5 303/7/5
f 309/7/5 306/7/5 305/7/5
f 310/7/5 306/7/5 309/7/5
f 311/7/5 308/7/5 307/7/5
f 312/7/5 308/7/5 311/7/5
f 313/2/6 314/2/6 315/2/6
f 315/2/6 314/2/6 316/2/6
